<mxfile host="65bd71144e">
    <diagram id="6EXt89o7fHejoy0miyVt" name="Page-1">
        <mxGraphModel dx="1929" dy="675" grid="1" gridSize="10" guides="1" tooltips="1" connect="1" arrows="1" fold="1" page="1" pageScale="1" pageWidth="850" pageHeight="1100" math="0" shadow="0">
            <root>
                <mxCell id="0"/>
                <mxCell id="1" parent="0"/>
                <mxCell id="53" value="" style="rounded=0;whiteSpace=wrap;html=1;fontFamily=JetBrains Mono;fontSource=https%3A%2F%2Ffonts.googleapis.com%2Fcss%3Ffamily%3DJetBrains%2BMono;fontSize=14;fillColor=#FFFFFF;strokeColor=none;fontStyle=1" parent="1" vertex="1">
                    <mxGeometry x="70" y="100" width="690" height="300" as="geometry"/>
                </mxCell>
                <mxCell id="2" value="" style="rounded=1;whiteSpace=wrap;html=1;fillColor=#FFFFFF;fontColor=#0066ff;strokeColor=#408bff;arcSize=5;strokeWidth=2;fontFamily=JetBrains Mono;fontSource=https%3A%2F%2Ffonts.googleapis.com%2Fcss%3Ffamily%3DJetBrains%2BMono;gradientColor=none;fillStyle=hatch;fontStyle=1" parent="1" vertex="1">
                    <mxGeometry x="80" y="110" width="160" height="210" as="geometry"/>
                </mxCell>
                <mxCell id="5" value="Node 1" style="text;html=1;strokeColor=none;fillColor=none;align=left;verticalAlign=middle;whiteSpace=wrap;rounded=0;fontColor=#408BFF;strokeWidth=2;fontFamily=JetBrains Mono;fontSource=https%3A%2F%2Ffonts.googleapis.com%2Fcss%3Ffamily%3DJetBrains%2BMono;fontSize=14;fontStyle=1;" parent="1" vertex="1">
                    <mxGeometry x="90" y="124" width="60" height="20" as="geometry"/>
                </mxCell>
                <mxCell id="13" value="CPU X" style="rounded=1;whiteSpace=wrap;html=1;fillColor=#408bff;strokeColor=#408bff;strokeWidth=2;fontFamily=JetBrains Mono;fontSource=https%3A%2F%2Ffonts.googleapis.com%2Fcss%3Ffamily%3DJetBrains%2BMono;fontStyle=1;fontColor=#FFFFFF;" parent="1" vertex="1">
                    <mxGeometry x="90" y="200" width="140" height="20" as="geometry"/>
                </mxCell>
                <mxCell id="34" value="- feat 1&lt;br style=&quot;font-size: 14px;&quot;&gt;- feat&amp;nbsp;2&lt;br style=&quot;font-size: 14px;&quot;&gt;- feat 3" style="rounded=0;whiteSpace=wrap;html=1;fillColor=none;fontColor=default;strokeColor=#408bff;arcSize=5;strokeWidth=2;align=center;verticalAlign=top;fontFamily=JetBrains Mono;fontSource=https%3A%2F%2Ffonts.googleapis.com%2Fcss%3Ffamily%3DJetBrains%2BMono;fontSize=14;spacing=3;fontStyle=1;" parent="1" vertex="1">
                    <mxGeometry x="90" y="220" width="140" height="90" as="geometry"/>
                </mxCell>
                <mxCell id="39" value="" style="rounded=1;whiteSpace=wrap;html=1;fillColor=#FFFFFF;fontColor=#0066ff;strokeColor=#408bff;arcSize=5;strokeWidth=2;fontFamily=JetBrains Mono;fontSource=https%3A%2F%2Ffonts.googleapis.com%2Fcss%3Ffamily%3DJetBrains%2BMono;gradientColor=none;fillStyle=hatch;fontStyle=1" parent="1" vertex="1">
                    <mxGeometry x="250" y="110" width="160" height="210" as="geometry"/>
                </mxCell>
                <mxCell id="40" value="Node 2" style="text;html=1;strokeColor=none;fillColor=none;align=left;verticalAlign=middle;whiteSpace=wrap;rounded=0;fontColor=#408BFF;strokeWidth=2;fontFamily=JetBrains Mono;fontSource=https%3A%2F%2Ffonts.googleapis.com%2Fcss%3Ffamily%3DJetBrains%2BMono;fontSize=14;fontStyle=1;" parent="1" vertex="1">
                    <mxGeometry x="260" y="124" width="60" height="20" as="geometry"/>
                </mxCell>
                <mxCell id="41" value="CPU X" style="rounded=1;whiteSpace=wrap;html=1;fillColor=#408bff;strokeColor=#408bff;strokeWidth=2;fontFamily=JetBrains Mono;fontSource=https%3A%2F%2Ffonts.googleapis.com%2Fcss%3Ffamily%3DJetBrains%2BMono;fontStyle=1;fontColor=#FFFFFF;" parent="1" vertex="1">
                    <mxGeometry x="260" y="200" width="140" height="20" as="geometry"/>
                </mxCell>
                <mxCell id="42" value="- feat 1&lt;br style=&quot;font-size: 14px;&quot;&gt;- feat&amp;nbsp;2&lt;br style=&quot;font-size: 14px;&quot;&gt;- feat 3" style="rounded=0;whiteSpace=wrap;html=1;fillColor=none;fontColor=default;strokeColor=#408bff;arcSize=5;strokeWidth=2;align=center;verticalAlign=top;fontFamily=JetBrains Mono;fontSource=https%3A%2F%2Ffonts.googleapis.com%2Fcss%3Ffamily%3DJetBrains%2BMono;fontSize=14;spacing=3;fontStyle=1;" parent="1" vertex="1">
                    <mxGeometry x="260" y="220" width="140" height="90" as="geometry"/>
                </mxCell>
                <mxCell id="43" value="" style="rounded=1;whiteSpace=wrap;html=1;fillColor=#FFFFFF;fontColor=#0066ff;strokeColor=#38cda9;arcSize=5;strokeWidth=2;fontFamily=JetBrains Mono;fontSource=https%3A%2F%2Ffonts.googleapis.com%2Fcss%3Ffamily%3DJetBrains%2BMono;fontStyle=1" parent="1" vertex="1">
                    <mxGeometry x="420" y="110" width="160" height="210" as="geometry"/>
                </mxCell>
                <mxCell id="44" value="Node 3" style="text;html=1;strokeColor=none;fillColor=none;align=left;verticalAlign=middle;whiteSpace=wrap;rounded=0;fontColor=#38CDA9;strokeWidth=2;fontFamily=JetBrains Mono;fontSource=https%3A%2F%2Ffonts.googleapis.com%2Fcss%3Ffamily%3DJetBrains%2BMono;fontSize=14;fontStyle=1;" parent="1" vertex="1">
                    <mxGeometry x="430" y="124" width="60" height="20" as="geometry"/>
                </mxCell>
                <mxCell id="45" value="CPU Y" style="rounded=1;whiteSpace=wrap;html=1;fillColor=#38cda9;strokeColor=#38cda9;strokeWidth=2;fontFamily=JetBrains Mono;fontSource=https%3A%2F%2Ffonts.googleapis.com%2Fcss%3Ffamily%3DJetBrains%2BMono;fontStyle=1;fontColor=#f5f5fb;" parent="1" vertex="1">
                    <mxGeometry x="430" y="200" width="140" height="20" as="geometry"/>
                </mxCell>
                <mxCell id="46" value="- feat 1&lt;br style=&quot;font-size: 14px;&quot;&gt;- feat&amp;nbsp;2&lt;br style=&quot;font-size: 14px;&quot;&gt;- feat 3&lt;br style=&quot;font-size: 14px;&quot;&gt;- feat 4" style="rounded=0;whiteSpace=wrap;html=1;fillColor=none;fontColor=default;strokeColor=#38cda9;arcSize=5;strokeWidth=2;align=center;verticalAlign=top;fontFamily=JetBrains Mono;fontSource=https%3A%2F%2Ffonts.googleapis.com%2Fcss%3Ffamily%3DJetBrains%2BMono;fontSize=14;spacing=3;fontStyle=1;" parent="1" vertex="1">
                    <mxGeometry x="430" y="220" width="140" height="90" as="geometry"/>
                </mxCell>
                <mxCell id="47" value="" style="rounded=1;whiteSpace=wrap;html=1;fillColor=#FFFFFF;fontColor=#0066ff;strokeColor=#38cda9;arcSize=5;strokeWidth=2;fontFamily=JetBrains Mono;fontSource=https%3A%2F%2Ffonts.googleapis.com%2Fcss%3Ffamily%3DJetBrains%2BMono;fontStyle=1" parent="1" vertex="1">
                    <mxGeometry x="590" y="110" width="160" height="210" as="geometry"/>
                </mxCell>
                <mxCell id="48" value="Node 4" style="text;html=1;strokeColor=none;fillColor=none;align=left;verticalAlign=middle;whiteSpace=wrap;rounded=0;fontColor=#38CDA9;strokeWidth=2;fontFamily=JetBrains Mono;fontSource=https%3A%2F%2Ffonts.googleapis.com%2Fcss%3Ffamily%3DJetBrains%2BMono;fontSize=14;fontStyle=1;" parent="1" vertex="1">
                    <mxGeometry x="600" y="124" width="60" height="20" as="geometry"/>
                </mxCell>
                <mxCell id="49" value="CPU Y" style="rounded=1;whiteSpace=wrap;html=1;fillColor=#38cda9;strokeColor=#38cda9;strokeWidth=2;fontFamily=JetBrains Mono;fontSource=https%3A%2F%2Ffonts.googleapis.com%2Fcss%3Ffamily%3DJetBrains%2BMono;fontStyle=1;fontColor=#f5f5fb;" parent="1" vertex="1">
                    <mxGeometry x="600" y="200" width="140" height="20" as="geometry"/>
                </mxCell>
                <mxCell id="50" value="- feat 1&lt;br style=&quot;font-size: 14px;&quot;&gt;- feat&amp;nbsp;2&lt;br style=&quot;font-size: 14px;&quot;&gt;- feat 3&lt;br style=&quot;font-size: 14px;&quot;&gt;- feat 4" style="rounded=0;whiteSpace=wrap;html=1;fillColor=none;fontColor=default;strokeColor=#38cda9;arcSize=5;strokeWidth=2;align=center;verticalAlign=top;fontFamily=JetBrains Mono;fontSource=https%3A%2F%2Ffonts.googleapis.com%2Fcss%3Ffamily%3DJetBrains%2BMono;fontSize=14;spacing=3;fontStyle=1;" parent="1" vertex="1">
                    <mxGeometry x="600" y="220" width="140" height="90" as="geometry"/>
                </mxCell>
                <mxCell id="57" style="html=1;exitX=0.5;exitY=0;exitDx=0;exitDy=0;fontFamily=JetBrains Mono;fontSource=https%3A%2F%2Ffonts.googleapis.com%2Fcss%3Ffamily%3DJetBrains%2BMono;fontSize=12;strokeColor=#ffab40;endArrow=none;endFill=0;strokeWidth=2;fontStyle=1;fillColor=#da47ff;entryX=0.5;entryY=1;entryDx=0;entryDy=0;" parent="1" source="56" target="52" edge="1">
                    <mxGeometry relative="1" as="geometry"/>
                </mxCell>
                <mxCell id="56" value="virtualMachineClass:&amp;nbsp;&lt;span style=&quot;&quot; data-src-align=&quot;0:13&quot; class=&quot;EzKURWReUAB5oZgtQNkl&quot;&gt;universal&lt;/span&gt;" style="text;html=1;fillColor=#ffab40;align=center;verticalAlign=middle;whiteSpace=wrap;rounded=1;fontColor=#f5f5fb;strokeWidth=2;fontFamily=JetBrains Mono;fontSource=https%3A%2F%2Ffonts.googleapis.com%2Fcss%3Ffamily%3DJetBrains%2BMono;fontSize=12;fontStyle=1;strokeColor=#ffab40;" parent="1" vertex="1">
                    <mxGeometry x="240" y="370" width="230" height="20" as="geometry"/>
                </mxCell>
                <mxCell id="60" style="html=1;strokeWidth=2;fontFamily=JetBrains Mono;fontSource=https%3A%2F%2Ffonts.googleapis.com%2Fcss%3Ffamily%3DJetBrains%2BMono;fontSize=12;endArrow=none;endFill=0;strokeColor=#38cda9;fontStyle=1" parent="1" source="58" target="72" edge="1">
                    <mxGeometry relative="1" as="geometry">
                        <mxPoint x="820" y="308.6111111111112" as="targetPoint"/>
                    </mxGeometry>
                </mxCell>
                <mxCell id="58" value="virtualMachineClass: cpuY" style="text;html=1;strokeColor=#38cda9;fillColor=#38cda9;align=center;verticalAlign=middle;whiteSpace=wrap;rounded=1;fontColor=#f5f5fb;strokeWidth=2;fontFamily=JetBrains Mono;fontSource=https%3A%2F%2Ffonts.googleapis.com%2Fcss%3Ffamily%3DJetBrains%2BMono;fontSize=12;fontStyle=1" parent="1" vertex="1">
                    <mxGeometry x="550" y="330" width="190" height="20" as="geometry"/>
                </mxCell>
                <mxCell id="64" value="" style="html=1;strokeWidth=2;fontFamily=JetBrains Mono;fontSource=https%3A%2F%2Ffonts.googleapis.com%2Fcss%3Ffamily%3DJetBrains%2BMono;fontSize=12;endArrow=none;endFill=0;fillColor=#1ba1e2;strokeColor=#006EAF;fontStyle=1" parent="1" source="63" target="71" edge="1">
                    <mxGeometry relative="1" as="geometry">
                        <mxPoint x="221.0115606936413" y="300" as="targetPoint"/>
                    </mxGeometry>
                </mxCell>
                <mxCell id="63" value="virtualMachineClass: cpuX" style="text;html=1;strokeColor=#408bff;fillColor=#408bff;align=center;verticalAlign=middle;whiteSpace=wrap;rounded=1;strokeWidth=2;fontFamily=JetBrains Mono;fontSource=https%3A%2F%2Ffonts.googleapis.com%2Fcss%3Ffamily%3DJetBrains%2BMono;fontSize=12;fontStyle=1;fontColor=#FFFFFF;" parent="1" vertex="1">
                    <mxGeometry x="100" y="340" width="190" height="20" as="geometry"/>
                </mxCell>
                <mxCell id="67" value="labels:&lt;br&gt;&amp;nbsp; group: &lt;font color=&quot;#38cda9&quot;&gt;green&lt;/font&gt;" style="rounded=0;whiteSpace=wrap;html=1;fillColor=none;fontColor=default;strokeColor=none;arcSize=5;strokeWidth=2;align=left;verticalAlign=top;fontFamily=JetBrains Mono;fontSource=https%3A%2F%2Ffonts.googleapis.com%2Fcss%3Ffamily%3DJetBrains%2BMono;fontSize=14;spacing=3;fontStyle=1;" parent="1" vertex="1">
                    <mxGeometry x="430" y="144" width="140" height="50" as="geometry"/>
                </mxCell>
                <mxCell id="68" value="labels:&lt;br&gt;&amp;nbsp; group: &lt;font color=&quot;#38cda9&quot;&gt;green&lt;/font&gt;" style="rounded=0;whiteSpace=wrap;html=1;fillColor=none;fontColor=default;strokeColor=none;arcSize=5;strokeWidth=2;align=left;verticalAlign=top;fontFamily=JetBrains Mono;fontSource=https%3A%2F%2Ffonts.googleapis.com%2Fcss%3Ffamily%3DJetBrains%2BMono;fontSize=14;spacing=3;fontStyle=1;" parent="1" vertex="1">
                    <mxGeometry x="600" y="144" width="140" height="50" as="geometry"/>
                </mxCell>
                <mxCell id="52" value="" style="rounded=1;whiteSpace=wrap;html=1;fontFamily=JetBrains Mono;fontSource=https%3A%2F%2Ffonts.googleapis.com%2Fcss%3Ffamily%3DJetBrains%2BMono;fontSize=14;fillColor=#ffab40;strokeColor=#ffab40;strokeWidth=2;fontColor=#f5f5fb;opacity=30;fontStyle=1" parent="1" vertex="1">
                    <mxGeometry x="100" y="225" width="630" height="50" as="geometry"/>
                </mxCell>
                <mxCell id="71" value="" style="rounded=1;whiteSpace=wrap;html=1;fontFamily=JetBrains Mono;fontSource=https%3A%2F%2Ffonts.googleapis.com%2Fcss%3Ffamily%3DJetBrains%2BMono;fontSize=14;fillColor=#408bff;strokeColor=#408bff;strokeWidth=2;opacity=30;fontStyle=1" parent="1" vertex="1">
                    <mxGeometry x="120" y="225" width="260" height="73" as="geometry"/>
                </mxCell>
                <mxCell id="72" value="" style="rounded=1;whiteSpace=wrap;html=1;fontFamily=JetBrains Mono;fontSource=https%3A%2F%2Ffonts.googleapis.com%2Fcss%3Ffamily%3DJetBrains%2BMono;fontSize=14;fillColor=#38cda9;strokeColor=#38cda9;strokeWidth=2;fontColor=#f5f5fb;opacity=30;fontStyle=1" parent="1" vertex="1">
                    <mxGeometry x="450" y="225" width="260" height="73" as="geometry"/>
                </mxCell>
                <mxCell id="73" value="labels:&lt;br&gt;&amp;nbsp; group: &lt;font color=&quot;#408bff&quot;&gt;blue&lt;/font&gt;" style="rounded=0;whiteSpace=wrap;html=1;fillColor=none;fontColor=default;strokeColor=none;arcSize=5;strokeWidth=2;align=left;verticalAlign=top;fontFamily=JetBrains Mono;fontSource=https%3A%2F%2Ffonts.googleapis.com%2Fcss%3Ffamily%3DJetBrains%2BMono;fontSize=14;spacing=3;fontStyle=1;" parent="1" vertex="1">
                    <mxGeometry x="90" y="144" width="140" height="50" as="geometry"/>
                </mxCell>
                <mxCell id="74" value="labels:&lt;br&gt;&amp;nbsp; group: &lt;font color=&quot;#408bff&quot;&gt;blue&lt;/font&gt;" style="rounded=0;whiteSpace=wrap;html=1;fillColor=none;fontColor=default;strokeColor=none;arcSize=5;strokeWidth=2;align=left;verticalAlign=top;fontFamily=JetBrains Mono;fontSource=https%3A%2F%2Ffonts.googleapis.com%2Fcss%3Ffamily%3DJetBrains%2BMono;fontSize=14;spacing=3;fontStyle=1;" parent="1" vertex="1">
                    <mxGeometry x="260" y="144" width="140" height="50" as="geometry"/>
                </mxCell>
            </root>
        </mxGraphModel>
    </diagram>
</mxfile>
